{
    "asset" : {
        "generator" : "Khronos glTF Blender I/O v1.1.45",
        "version" : "2.0"
    },
    "scene" : 0,
    "scenes" : [
        {
            "name" : "Scene",
            "nodes" : [
                0
            ]
        }
    ],
    "nodes" : [
        {
            "mesh" : 0,
            "name" : "Model_1",
            "rotation" : [
                0.7071068286895752,
                0,
                0,
                0.7071067094802856
            ],
            "scale" : [
                6.542277812957764,
                6.542277812957764,
                6.542277812957764
            ]
        }
    ],
    "materials" : [
        {
            "doubleSided" : true,
            "emissiveFactor" : [
                0,
                0,
                0
            ],
            "name" : "FABRIC_1_FRONT_1707",
            "pbrMetallicRoughness" : {
                "baseColorTexture" : {
                    "index" : 0,
                    "texCoord" : 0
                },
                "metallicFactor" : 0,
                "roughnessFactor" : 0.8163987398147583
            }
        },
        {
            "doubleSided" : true,
            "emissiveFactor" : [
                0,
                0,
                0
            ],
            "name" : "BTN_FABRIC_FRONT_1717",
            "pbrMetallicRoughness" : {
                "baseColorFactor" : [
                    0.800000011920929,
                    0.800000011920929,
                    0.800000011920929,
                    1
                ],
                "metallicFactor" : 0,
                "roughnessFactor" : 0.5
            }
        },
        {
            "doubleSided" : true,
            "emissiveFactor" : [
                0,
                0,
                0
            ],
            "name" : "Material60267",
            "pbrMetallicRoughness" : {
                "baseColorFactor" : [
                    1,
                    1,
                    1,
                    1
                ],
                "metallicFactor" : 0,
                "roughnessFactor" : 0.8212287425994873
            }
        }
    ],
    "meshes" : [
        {
            "name" : "Model_1",
            "primitives" : [
                {
                    "attributes" : {
                        "POSITION" : 0,
                        "NORMAL" : 1,
                        "TEXCOORD_0" : 2
                    },
                    "indices" : 3,
                    "material" : 0
                },
                {
                    "attributes" : {
                        "POSITION" : 4,
                        "NORMAL" : 5,
                        "TEXCOORD_0" : 6
                    },
                    "indices" : 7,
                    "material" : 1
                },
                {
                    "attributes" : {
                        "POSITION" : 8,
                        "NORMAL" : 9,
                        "TEXCOORD_0" : 10
                    },
                    "indices" : 11,
                    "material" : 2
                }
            ]
        }
    ],
    "textures" : [
        {
            "source" : 0
        }
    ],
    "images" : [
        {
            "mimeType" : "image/png",
            "name" : "Model_1_diffuse",
            "uri" : "Model_1_diffuse.png"
        }
    ],
    "accessors" : [
        {
            "bufferView" : 0,
            "componentType" : 5126,
            "count" : 32660,
            "max" : [
                0.03898699954152107,
                0.004050000105053186,
                -0.030639000236988068
            ],
            "min" : [
                -0.04465100169181824,
                -0.0775969997048378,
                -0.22072499990463257
            ],
            "type" : "VEC3"
        },
        {
            "bufferView" : 1,
            "componentType" : 5126,
            "count" : 32660,
            "type" : "VEC3"
        },
        {
            "bufferView" : 2,
            "componentType" : 5126,
            "count" : 32660,
            "type" : "VEC2"
        },
        {
            "bufferView" : 3,
            "componentType" : 5123,
            "count" : 130545,
            "type" : "SCALAR"
        },
        {
            "bufferView" : 4,
            "componentType" : 5126,
            "count" : 80,
            "max" : [
                -0.0017219999572262168,
                0.003381999908015132,
                -0.21191300451755524
            ],
            "min" : [
                -0.005332000087946653,
                0.0010849999962374568,
                -0.21643200516700745
            ],
            "type" : "VEC3"
        },
        {
            "bufferView" : 5,
            "componentType" : 5126,
            "count" : 80,
            "type" : "VEC3"
        },
        {
            "bufferView" : 6,
            "componentType" : 5126,
            "count" : 80,
            "type" : "VEC2"
        },
        {
            "bufferView" : 7,
            "componentType" : 5123,
            "count" : 84,
            "type" : "SCALAR"
        },
        {
            "bufferView" : 8,
            "componentType" : 5126,
            "count" : 12849,
            "max" : [
                0.09843999892473221,
                0.004676000215113163,
                0.002363000065088272
            ],
            "min" : [
                -0.12251400202512741,
                -0.08869799971580505,
                -0.3395319879055023
            ],
            "type" : "VEC3"
        },
        {
            "bufferView" : 9,
            "componentType" : 5126,
            "count" : 12849,
            "type" : "VEC3"
        },
        {
            "bufferView" : 10,
            "componentType" : 5126,
            "count" : 12849,
            "type" : "VEC2"
        },
        {
            "bufferView" : 11,
            "componentType" : 5123,
            "count" : 45693,
            "type" : "SCALAR"
        }
    ],
    "bufferViews" : [
        {
            "buffer" : 0,
            "byteLength" : 391920,
            "byteOffset" : 0
        },
        {
            "buffer" : 0,
            "byteLength" : 391920,
            "byteOffset" : 391920
        },
        {
            "buffer" : 0,
            "byteLength" : 261280,
            "byteOffset" : 783840
        },
        {
            "buffer" : 0,
            "byteLength" : 261090,
            "byteOffset" : 1045120
        },
        {
            "buffer" : 0,
            "byteLength" : 960,
            "byteOffset" : 1306212
        },
        {
            "buffer" : 0,
            "byteLength" : 960,
            "byteOffset" : 1307172
        },
        {
            "buffer" : 0,
            "byteLength" : 640,
            "byteOffset" : 1308132
        },
        {
            "buffer" : 0,
            "byteLength" : 168,
            "byteOffset" : 1308772
        },
        {
            "buffer" : 0,
            "byteLength" : 154188,
            "byteOffset" : 1308940
        },
        {
            "buffer" : 0,
            "byteLength" : 154188,
            "byteOffset" : 1463128
        },
        {
            "buffer" : 0,
            "byteLength" : 102792,
            "byteOffset" : 1617316
        },
        {
            "buffer" : 0,
            "byteLength" : 91386,
            "byteOffset" : 1720108
        }
    ],
    "buffers" : [
        {
            "byteLength" : 1811496,
            "uri" : "Model_8.bin"
        }
    ]
}
